<svg width="21" height="42" viewBox="0 0 21 42" fill="none" xmlns="http://www.w3.org/2000/svg">
<path d="M20.3514 20.576C20.3514 21.552 20.1274 22.448 19.6794 23.264C19.2314 24.064 18.5434 24.712 17.6154 25.208C16.6874 25.704 15.5354 25.952 14.1594 25.952H11.6154V32H7.51144V15.152H14.1594C15.5034 15.152 16.6394 15.384 17.5674 15.848C18.4954 16.312 19.1914 16.952 19.6554 17.768C20.1194 18.584 20.3514 19.52 20.3514 20.576ZM13.8474 22.688C14.6314 22.688 15.2154 22.504 15.5994 22.136C15.9834 21.768 16.1754 21.248 16.1754 20.576C16.1754 19.904 15.9834 19.384 15.5994 19.016C15.2154 18.648 14.6314 18.464 13.8474 18.464H11.6154V22.688H13.8474Z" fill="#A8A4FF"/>
<path d="M14.3514 14.576C14.3514 15.552 14.1274 16.448 13.6794 17.264C13.2314 18.064 12.5434 18.712 11.6154 19.208C10.6874 19.704 9.53544 19.952 8.15944 19.952H5.61544V26H1.51144V9.152H8.15944C9.50344 9.152 10.6394 9.384 11.5674 9.848C12.4954 10.312 13.1914 10.952 13.6554 11.768C14.1194 12.584 14.3514 13.52 14.3514 14.576ZM7.84744 16.688C8.63144 16.688 9.21544 16.504 9.59944 16.136C9.98344 15.768 10.1754 15.248 10.1754 14.576C10.1754 13.904 9.98344 13.384 9.59944 13.016C9.21544 12.648 8.63144 12.464 7.84744 12.464H5.61544V16.688H7.84744Z" fill="#635FC7"/>
</svg>
